# xmcd CD database file
#
# Track frame offsets:
#	150
#	10718
#	39008
#	53904
#	73290
#	90159
#	115833
#	143445
#	150420
#	170368
#	191072
#	223337
#	234793
#	245844
#	280384
#	293506
#
# Disc length: 4102 seconds
#
# Revision: 0
# Processed by: cddbd v1.5.2PL0 Copyright (c) Steve Scherf et al.
# Submitted via: CDex 1.51
#
DISCID=d4100410
DTITLE=Die drei Fragezeichen - 150B - Geisterbucht - Flammendes Wasser
DYEAR=2011
DGENRE=Höhspiel
TTITLE0=Fragezeichen
TTITLE1=In Rashuras Hölle
TTITLE2=Rettung
TTITLE3=Wo ist Bob?
TTITLE4=Heimlicher Fan
TTITLE5=Ein Hauch von Gift
TTITLE6=Der Stern von Kerala
TTITLE7=Eine wichtige Spur
TTITLE8=Ein verdächtiger Polizist
TTITLE9=Strandcafé Rocky Beach
TTITLE10=Leviathan
TTITLE11=Selbstmord
TTITLE12=Hände hoch!
TTITLE13=Ausbruch
TTITLE14=Poker-Einsatz
TTITLE15=Untergang
EXTD=YEAR: 2011
EXTT0=
EXTT1=
EXTT2=
EXTT3=
EXTT4=
EXTT5=
EXTT6=
EXTT7=
EXTT8=
EXTT9=
EXTT10=
EXTT11=
EXTT12=
EXTT13=
EXTT14=
EXTT15=
PLAYORDER=
